<svg width="549" height="372" xmlns="http://www.w3.org/2000/svg" xmlns:xlink="http://www.w3.org/1999/xlink" xml:space="preserve" overflow="hidden"><defs><clipPath id="clip0"><rect x="617" y="60" width="549" height="372"/></clipPath><clipPath id="clip1"><rect x="617" y="60" width="549" height="372"/></clipPath><clipPath id="clip2"><rect x="618" y="60" width="548" height="372"/></clipPath><clipPath id="clip3"><rect x="618" y="60" width="548" height="372"/></clipPath><clipPath id="clip4"><rect x="618" y="60" width="548" height="372"/></clipPath></defs><g clip-path="url(#clip0)" transform="translate(-617 -60)"><g clip-path="url(#clip1)"><g clip-path="url(#clip2)"><g clip-path="url(#clip3)"><g clip-path="url(#clip4)"><path d="M562.17 321.002C558.296 331.966 554.981 343.135 551.919 354.271 541.121 395.436 535.199 437.576 531.831 479.953 531.529 483.725 534.377 486.783 538.156 486.783L601.432 486.783 601.432 486.776C601.428 426.268 587.62 368.717 562.17 321.002ZM176.043 321.002C179.919 331.966 183.233 343.135 186.297 354.271 197.093 395.436 203.016 437.576 206.385 479.953 206.685 483.725 203.84 486.783 200.057 486.783L136.782 486.783 136.782 486.776C136.786 426.268 150.593 368.717 176.043 321.002Z" stroke="#FFFFFF" stroke-width="3.77158" stroke-linecap="round" stroke-linejoin="round" stroke-miterlimit="4" stroke-opacity="1" fill="#333F4F" fill-rule="nonzero" fill-opacity="1" transform="matrix(1 0 0 1.00182 522.893 -127.423)"/><path d="M113.877 480.044C103.511 480.044 95.1077 489.748 95.1073 501.708 95.1141 511.419 100.721 519.936 108.823 522.549L108.809 522.564C191.351 546.163 279.791 558.327 369.107 558.364 458.425 558.327 546.861 546.163 629.406 522.564L629.391 522.549C637.492 519.936 643.1 511.419 643.108 501.708 643.108 489.752 634.705 480.047 624.344 480.044 616.311 480.066 609.179 485.984 606.607 494.764L369.107 494.764 131.608 494.764C129.033 485.984 121.909 480.066 113.877 480.044Z" stroke="#FFFFFF" stroke-width="3.77158" stroke-linecap="butt" stroke-linejoin="round" stroke-miterlimit="4" stroke-opacity="1" fill="#333F4F" fill-rule="nonzero" fill-opacity="1" transform="matrix(1 0 0 1.00182 522.893 -127.423)"/><path d="M369.106 187.122C335.607 187.137 302.45 194.739 271.487 209.485 268.355 210.976 265.863 214.858 265.874 218.06 265.885 221.529 263.457 225.756 260.518 227.599 232.419 245.215 208.551 269.423 189.492 298.309 186.535 302.79 185.912 310.555 187.753 315.597 191.016 324.532 194.093 334.133 196.968 344.341 207.755 383.046 215.398 429.523 219.251 479.712 219.551 483.612 222.942 486.787 226.854 486.787L369.106 486.787 511.359 486.787C515.27 486.787 518.661 483.612 518.959 479.712 522.813 429.523 530.455 383.046 541.245 344.341 544.119 334.133 547.197 324.532 550.459 315.597 552.3 310.555 551.677 302.79 548.72 298.309 529.663 269.423 505.792 245.215 477.694 227.599 474.756 225.756 472.327 221.529 472.338 218.06 472.35 214.858 469.857 210.976 466.726 209.485 435.761 194.739 402.605 187.137 369.106 187.122ZM369.106 199.194C412.257 200.767 444.229 214.142 455.645 220.027 458.236 221.361 459.764 225.029 459.247 227.901L424.62 420.37 369.106 420.37 313.594 420.37 278.963 227.901C278.447 225.029 279.976 221.361 282.565 220.027 293.984 214.142 325.953 200.767 369.106 199.194Z" stroke="#FFFFFF" stroke-width="3.77158" stroke-linecap="round" stroke-linejoin="round" stroke-miterlimit="4" stroke-opacity="1" fill="#333F4F" fill-rule="nonzero" fill-opacity="1" transform="matrix(1 0 0 1.00182 522.893 -127.423)"/><path d="M351.014 340.218 397.793 355.921 456.35 321.735 409.081 313.557Z" stroke="#FFFFFF" stroke-width="3.77158" stroke-linecap="round" stroke-linejoin="round" stroke-miterlimit="4" stroke-opacity="1" fill="#333F4F" fill-rule="nonzero" fill-opacity="1" transform="matrix(1 0 0 1.00182 488.317 -127.423)"/><path d="M443.165 339.412 397.793 365.899 363.57 354.412 351.015 360.177 397.793 375.878 456.35 341.692Z" stroke="#FFFFFF" stroke-width="3.77158" stroke-linecap="round" stroke-linejoin="round" stroke-miterlimit="4" stroke-opacity="1" fill="#333F4F" fill-rule="nonzero" fill-opacity="1" transform="matrix(1 0 0 1.00182 488.317 -127.423)"/><path d="M443.165 329.433 397.793 355.92 363.57 344.433 351.015 350.198 397.793 365.899 456.35 331.714Z" stroke="#FFFFFF" stroke-width="3.77158" stroke-linecap="round" stroke-linejoin="round" stroke-miterlimit="4" stroke-opacity="1" fill="#333F4F" fill-rule="nonzero" fill-opacity="1" transform="matrix(1 0 0 1.00182 488.317 -127.423)"/><path d="M407.573 208.056 394.157 233.245 382.382 236.19 369.624 268.086 359.317 261.707 342.962 303.416 467.763 303.416 450.753 265.959 432.597 246.331 433.25 270.703ZM406.426 226.675 406.426 270.048 425.073 297.425 351.492 297.317 361.692 271.945 373.999 280.431 387.636 243.411 399.535 239.468Z" stroke="#FFFFFF" stroke-width="3.77158" stroke-linecap="round" stroke-linejoin="round" stroke-miterlimit="4" stroke-opacity="1" fill="#333F4F" fill-rule="nonzero" fill-opacity="1" transform="matrix(1 0 0 1.00182 486.637 -127.423)"/><path d="M562.17 321.002C558.296 331.966 554.981 343.135 551.919 354.271 541.121 395.436 535.199 437.576 531.831 479.953 531.529 483.725 534.377 486.783 538.156 486.783L601.432 486.783 601.432 486.776C601.428 426.268 587.62 368.717 562.17 321.002ZM176.043 321.002C179.919 331.966 183.233 343.135 186.297 354.271 197.093 395.436 203.016 437.576 206.385 479.953 206.685 483.725 203.84 486.783 200.057 486.783L136.782 486.783 136.782 486.776C136.786 426.268 150.593 368.717 176.043 321.002Z" stroke="#FFFFFF" stroke-width="3.77158" stroke-linecap="round" stroke-linejoin="round" stroke-miterlimit="4" stroke-opacity="1" fill="#333F4F" fill-rule="nonzero" fill-opacity="1" transform="matrix(1 0 0 1.00182 522.893 -127.423)"/><path d="M113.877 480.044C103.511 480.044 95.1077 489.748 95.1073 501.708 95.1141 511.419 100.721 519.936 108.823 522.549L108.809 522.564C191.351 546.163 279.791 558.327 369.107 558.364 458.425 558.327 546.861 546.163 629.406 522.564L629.391 522.549C637.492 519.936 643.1 511.419 643.108 501.708 643.108 489.752 634.705 480.047 624.344 480.044 616.311 480.066 609.179 485.984 606.607 494.764L369.107 494.764 131.608 494.764C129.033 485.984 121.909 480.066 113.877 480.044Z" stroke="#FFFFFF" stroke-width="3.77158" stroke-linecap="butt" stroke-linejoin="round" stroke-miterlimit="4" stroke-opacity="1" fill="#333F4F" fill-rule="nonzero" fill-opacity="1" transform="matrix(1 0 0 1.00182 522.893 -127.423)"/><path d="M369.106 187.122C335.607 187.137 302.45 194.739 271.487 209.485 268.355 210.976 265.863 214.858 265.874 218.06 265.885 221.529 263.457 225.756 260.518 227.599 232.419 245.215 208.551 269.423 189.492 298.309 186.535 302.79 185.912 310.555 187.753 315.597 191.016 324.532 194.093 334.133 196.968 344.341 207.755 383.046 215.398 429.523 219.251 479.712 219.551 483.612 222.942 486.787 226.854 486.787L369.106 486.787 511.359 486.787C515.27 486.787 518.661 483.612 518.959 479.712 522.813 429.523 530.455 383.046 541.245 344.341 544.119 334.133 547.197 324.532 550.459 315.597 552.3 310.555 551.677 302.79 548.72 298.309 529.663 269.423 505.792 245.215 477.694 227.599 474.756 225.756 472.327 221.529 472.338 218.06 472.35 214.858 469.857 210.976 466.726 209.485 435.761 194.739 402.605 187.137 369.106 187.122ZM369.106 199.194C412.257 200.767 444.229 214.142 455.645 220.027 458.236 221.361 459.764 225.029 459.247 227.901L424.62 420.37 369.106 420.37 313.594 420.37 278.963 227.901C278.447 225.029 279.976 221.361 282.565 220.027 293.984 214.142 325.953 200.767 369.106 199.194Z" stroke="#FFFFFF" stroke-width="3.77158" stroke-linecap="round" stroke-linejoin="round" stroke-miterlimit="4" stroke-opacity="1" fill="#333F4F" fill-rule="nonzero" fill-opacity="1" transform="matrix(1 0 0 1.00182 522.893 -127.423)"/><path d="M351.014 340.218 397.793 355.921 456.35 321.735 409.081 313.557Z" stroke="#FFFFFF" stroke-width="3.77158" stroke-linecap="round" stroke-linejoin="round" stroke-miterlimit="4" stroke-opacity="1" fill="#333F4F" fill-rule="nonzero" fill-opacity="1" transform="matrix(1 0 0 1.00182 488.317 -127.423)"/><path d="M443.165 339.412 397.793 365.899 363.57 354.412 351.015 360.177 397.793 375.878 456.35 341.692Z" stroke="#FFFFFF" stroke-width="3.77158" stroke-linecap="round" stroke-linejoin="round" stroke-miterlimit="4" stroke-opacity="1" fill="#333F4F" fill-rule="nonzero" fill-opacity="1" transform="matrix(1 0 0 1.00182 488.317 -127.423)"/><path d="M443.165 329.433 397.793 355.92 363.57 344.433 351.015 350.198 397.793 365.899 456.35 331.714Z" stroke="#FFFFFF" stroke-width="3.77158" stroke-linecap="round" stroke-linejoin="round" stroke-miterlimit="4" stroke-opacity="1" fill="#333F4F" fill-rule="nonzero" fill-opacity="1" transform="matrix(1 0 0 1.00182 488.317 -127.423)"/><path d="M407.573 208.056 394.157 233.245 382.382 236.19 369.624 268.086 359.317 261.707 342.962 303.416 467.763 303.416 450.753 265.959 432.597 246.331 433.25 270.703ZM406.426 226.675 406.426 270.048 425.073 297.425 351.492 297.317 361.692 271.945 373.999 280.431 387.636 243.411 399.535 239.468Z" stroke="#FFFFFF" stroke-width="3.77158" stroke-linecap="round" stroke-linejoin="round" stroke-miterlimit="4" stroke-opacity="1" fill="#333F4F" fill-rule="nonzero" fill-opacity="1" transform="matrix(1 0 0 1.00182 486.637 -127.423)"/></g></g></g></g></g></svg>